<svg width="291" height="36" viewBox="0 0 291 36" fill="none" xmlns="http://www.w3.org/2000/svg">
<path d="M12.384 26H15.12V9.32H12.384V16.472H4.536V9.32H1.8V26H4.536V18.704H12.384V26ZM31.3219 19.376C31.3219 15.224 28.3459 12.56 24.5779 12.56C20.8099 12.56 17.8339 15.224 17.8339 19.376C17.8339 23.528 20.6899 26.216 24.4579 26.216C28.2499 26.216 31.3219 23.528 31.3219 19.376ZM20.6179 19.376C20.6179 16.376 22.4659 14.936 24.5299 14.936C26.5699 14.936 28.5139 16.376 28.5139 19.376C28.5139 22.376 26.4979 23.84 24.4579 23.84C22.3939 23.84 20.6179 22.376 20.6179 19.376ZM52.7706 26H55.4826V18.2C55.4826 14.504 53.1306 12.56 50.0346 12.56C48.1146 12.56 46.2426 13.568 45.4266 15.176C44.5146 13.448 42.7626 12.56 40.6746 12.56C39.0906 12.56 37.6506 13.208 36.7626 14.288V12.776H34.0266V26H36.7626V18.608C36.7626 16.184 38.0826 14.936 40.0986 14.936C42.0906 14.936 43.4106 16.184 43.4106 18.608V26H46.1226V18.608C46.1226 16.184 47.4426 14.936 49.4586 14.936C51.4506 14.936 52.7706 16.184 52.7706 18.608V26ZM64.5321 14.864C66.5721 14.864 68.1801 16.16 68.2281 18.2H60.9081C61.1961 16.112 62.6841 14.864 64.5321 14.864ZM70.7241 22.064H67.7721C67.2681 23.096 66.3321 23.912 64.6521 23.912C62.6361 23.912 61.0761 22.592 60.8841 20.408H70.9881C71.0601 19.952 71.0841 19.52 71.0841 19.064C71.0841 15.176 68.4201 12.56 64.6521 12.56C60.7401 12.56 58.0521 15.224 58.0521 19.376C58.0521 23.528 60.8601 26.216 64.6521 26.216C67.8921 26.216 69.9801 24.368 70.7241 22.064Z" fill="#555555"/>
<path d="M109.056 26H111.936L105.96 9.296H102.792L96.816 26H99.672L100.872 22.592H107.856L109.056 26ZM107.088 20.36H101.64L104.376 12.608L107.088 20.36ZM117.27 14.744V8.24H114.534V26H117.27V24.08C118.134 25.232 119.694 26.216 121.878 26.216C125.358 26.216 128.094 23.408 128.094 19.328C128.094 15.248 125.382 12.56 121.878 12.56C119.79 12.56 118.134 13.544 117.27 14.744ZM125.31 19.328C125.31 22.184 123.342 23.84 121.278 23.84C119.238 23.84 117.27 22.232 117.27 19.376C117.27 16.544 119.238 14.936 121.278 14.936C123.342 14.936 125.31 16.472 125.31 19.328ZM143.4 19.376C143.4 15.224 140.424 12.56 136.656 12.56C132.888 12.56 129.912 15.224 129.912 19.376C129.912 23.528 132.768 26.216 136.536 26.216C140.328 26.216 143.4 23.528 143.4 19.376ZM132.696 19.376C132.696 16.376 134.544 14.936 136.608 14.936C138.648 14.936 140.592 16.376 140.592 19.376C140.592 22.376 138.576 23.84 136.536 23.84C134.472 23.84 132.696 22.376 132.696 19.376ZM158.081 12.776H155.345V20.144C155.345 22.568 154.025 23.816 152.009 23.816C150.017 23.816 148.697 22.568 148.697 20.144V12.776H145.985V20.552C145.985 24.248 148.337 26.192 151.433 26.192C152.993 26.192 154.481 25.544 155.345 24.416V26H158.081V12.776ZM162.123 22.328C162.123 25.016 163.587 26 165.939 26H168.099V23.72H166.419C165.267 23.72 164.883 23.312 164.883 22.328V15.008H168.099V12.776H164.883V9.488H162.123V12.776H160.563V15.008H162.123V22.328Z" fill="#555555"/>
<path d="M193.888 17.624C193.888 22.64 197.704 26.144 202.408 26.144C205.888 26.144 208.888 24.416 210.16 21.152H206.872C205.984 22.928 204.4 23.768 202.408 23.768C199.096 23.768 196.696 21.392 196.696 17.624C196.696 13.856 199.096 11.504 202.408 11.504C204.4 11.504 205.984 12.344 206.872 14.12H210.16C208.888 10.856 205.888 9.104 202.408 9.104C197.704 9.104 193.888 12.632 193.888 17.624ZM225.963 19.376C225.963 15.224 222.987 12.56 219.219 12.56C215.451 12.56 212.475 15.224 212.475 19.376C212.475 23.528 215.331 26.216 219.099 26.216C222.891 26.216 225.963 23.528 225.963 19.376ZM215.259 19.376C215.259 16.376 217.107 14.936 219.171 14.936C221.211 14.936 223.155 16.376 223.155 19.376C223.155 22.376 221.139 23.84 219.099 23.84C217.035 23.84 215.259 22.376 215.259 19.376ZM238.051 26H240.763V18.2C240.763 14.504 238.435 12.56 235.339 12.56C233.755 12.56 232.291 13.208 231.403 14.288V12.776H228.667V26H231.403V18.608C231.403 16.184 232.723 14.936 234.739 14.936C236.731 14.936 238.051 16.184 238.051 18.608V26ZM244.685 22.328C244.685 25.016 246.149 26 248.501 26H250.661V23.72H248.981C247.829 23.72 247.445 23.312 247.445 22.328V15.008H250.661V12.776H247.445V9.488H244.685V12.776H243.125V15.008H244.685V22.328ZM252.271 19.328C252.271 23.408 255.031 26.216 258.463 26.216C260.671 26.216 262.255 25.16 263.095 24.032V26H265.855V12.776H263.095V14.696C262.279 13.616 260.743 12.56 258.511 12.56C255.031 12.56 252.271 15.248 252.271 19.328ZM263.095 19.376C263.095 22.232 261.151 23.84 259.087 23.84C257.047 23.84 255.079 22.184 255.079 19.328C255.079 16.472 257.047 14.936 259.087 14.936C261.151 14.936 263.095 16.544 263.095 19.376ZM268.536 19.376C268.536 23.528 271.224 26.216 275.016 26.216C278.256 26.216 280.368 24.416 281.112 21.824H278.16C277.656 23.192 276.648 23.912 275.016 23.912C272.808 23.912 271.344 22.28 271.344 19.376C271.344 16.496 272.808 14.864 275.016 14.864C276.648 14.864 277.704 15.68 278.16 16.952H281.112C280.368 14.168 278.256 12.56 275.016 12.56C271.224 12.56 268.536 15.248 268.536 19.376ZM284.271 22.328C284.271 25.016 285.735 26 288.087 26H290.247V23.72H288.567C287.415 23.72 287.031 23.312 287.031 22.328V15.008H290.247V12.776H287.031V9.488H284.271V12.776H282.711V15.008H284.271V22.328Z" fill="#555555"/>
</svg>
