<svg width="491" height="195" viewBox="0 0 491 195" fill="none" xmlns="http://www.w3.org/2000/svg">
<path d="M23.952 53H32.16V19.304H23.952V32.504H11.184V19.304H2.976V53H11.184V39.128H23.952V53ZM38.0854 53H46.2934V26.216H38.0854V53ZM42.2134 23.432C45.0934 23.432 47.0614 21.464 47.0614 19.016C47.0614 16.52 45.0934 14.552 42.2134 14.552C39.2854 14.552 37.3174 16.52 37.3174 19.016C37.3174 21.464 39.2854 23.432 42.2134 23.432ZM62.4135 53H70.6215V39.368H80.8935V32.984H70.6215V25.88H84.3495V19.304H62.4135V53ZM114.872 39.608C114.872 31.112 108.824 25.832 100.952 25.832C93.1275 25.832 87.0315 31.112 87.0315 39.608C87.0315 48.104 92.9835 53.384 100.856 53.384C108.728 53.384 114.872 48.104 114.872 39.608ZM95.3835 39.608C95.3835 35.048 97.9755 32.936 100.952 32.936C103.832 32.936 106.52 35.048 106.52 39.608C106.52 44.12 103.784 46.28 100.856 46.28C97.8795 46.28 95.3835 44.12 95.3835 39.608ZM119.226 53H127.434V17.48H119.226V53ZM133.382 53H141.59V41.768L149.75 53H159.926L148.694 39.656L159.83 26.216H149.702L141.59 37.112V17.48H133.382V53ZM184.798 45.224C184.654 35.24 170.158 38.264 170.158 33.992C170.158 32.696 171.214 31.928 173.134 31.928C175.438 31.928 176.83 33.128 177.07 34.952H184.654C184.126 29.672 180.286 25.832 173.374 25.832C166.366 25.832 162.478 29.576 162.478 34.136C162.478 43.976 177.07 40.856 177.07 45.176C177.07 46.376 175.966 47.336 173.854 47.336C171.598 47.336 169.918 46.088 169.726 44.216H161.614C161.998 49.4 166.798 53.384 173.95 53.384C180.67 53.384 184.798 49.88 184.798 45.224ZM192.7 41.096H199.66L200.62 18.104H191.74L192.7 41.096ZM201.148 48.968C201.148 46.424 199.18 44.456 196.3 44.456C193.372 44.456 191.404 46.424 191.404 48.968C191.404 51.416 193.372 53.384 196.3 53.384C199.18 53.384 201.148 51.416 201.148 48.968Z" fill="black"/>
<path d="M1.848 113H4.032V96.272H1.848V113ZM13.3367 106.376C13.3367 110.456 16.0487 113.216 19.5527 113.216C21.9767 113.216 23.6807 111.968 24.4727 110.552V113H26.6807V99.848H24.4727V102.248C23.7047 100.88 22.0247 99.632 19.5767 99.632C16.0487 99.632 13.3367 102.272 13.3367 106.376ZM24.4727 106.4C24.4727 109.496 22.4087 111.296 20.0087 111.296C17.6087 111.296 15.5687 109.472 15.5687 106.376C15.5687 103.28 17.6087 101.528 20.0087 101.528C22.4087 101.528 24.4727 103.352 24.4727 106.4ZM49.3554 113H51.5154V105.248C51.5154 101.48 49.1874 99.608 46.1874 99.608C44.1714 99.608 42.2994 100.64 41.5314 102.536C40.6674 100.568 38.8674 99.608 36.7074 99.608C34.9794 99.608 33.4194 100.352 32.5554 101.744V99.848H30.3714V113H32.5554V105.752C32.5554 102.92 34.0674 101.504 36.2754 101.504C38.4354 101.504 39.8754 102.872 39.8754 105.56V113H42.0354V105.752C42.0354 102.92 43.5474 101.504 45.7554 101.504C47.9154 101.504 49.3554 102.872 49.3554 105.56V113ZM66.7044 96.272H61.4964V113H66.7044C72.2004 113 75.5844 109.856 75.5844 104.672C75.5844 99.488 72.2004 96.272 66.7044 96.272ZM63.6804 111.2V98.048H66.7044C71.0724 98.048 73.3524 100.592 73.3524 104.672C73.3524 108.752 71.0724 111.2 66.7044 111.2H63.6804ZM78.4652 113H80.6492V99.848H78.4652V113ZM79.5932 97.712C80.3852 97.712 81.0332 97.064 81.0332 96.224C81.0332 95.384 80.3852 94.736 79.5932 94.736C78.7532 94.736 78.1052 95.384 78.1052 96.224C78.1052 97.064 78.7532 97.712 79.5932 97.712ZM83.5554 106.4C83.5554 110.576 86.2194 113.216 89.9634 113.216C93.2274 113.216 95.3634 111.392 96.0354 108.776H93.6834C93.2034 110.432 91.9074 111.368 89.9634 111.368C87.5634 111.368 85.7874 109.664 85.7874 106.4C85.7874 103.184 87.5634 101.48 89.9634 101.48C91.9074 101.48 93.2274 102.488 93.6834 104.072H96.0354C95.3634 101.312 93.2274 99.632 89.9634 99.632C86.2194 99.632 83.5554 102.272 83.5554 106.4ZM98.9496 113H101.134V107.192L106.294 113H109.27L103.054 106.4L109.246 99.848H106.198L101.134 105.68V95.24H98.9496V113ZM116.293 110.504L112.165 99.848H109.741L115.045 112.856L112.453 119.192H114.709L122.629 99.848H120.373L116.293 110.504ZM142.095 108.44C142.095 102.248 133.071 104.936 133.071 100.616C133.071 98.816 134.487 97.88 136.287 97.928C138.327 97.952 139.383 99.224 139.527 100.352H141.927C141.663 97.808 139.575 96.056 136.383 96.056C133.071 96.056 130.839 97.928 130.839 100.688C130.839 106.904 139.887 104.024 139.887 108.536C139.887 110.12 138.639 111.32 136.527 111.32C134.199 111.32 133.215 109.928 133.071 108.536H130.743C130.791 111.296 133.167 113.168 136.527 113.168C140.151 113.168 142.095 110.816 142.095 108.44ZM156.973 99.848H154.789V107.072C154.789 109.904 153.277 111.296 151.021 111.296C148.813 111.296 147.349 109.928 147.349 107.264V99.848H145.189V107.552C145.189 111.32 147.565 113.192 150.589 113.192C152.341 113.192 153.949 112.424 154.789 111.056V113H156.973V99.848ZM162.845 105.848C162.845 102.8 164.429 101.864 166.517 101.864H167.093V99.608C165.005 99.608 163.589 100.52 162.845 101.984V99.848H160.661V113H162.845V105.848ZM174.606 110.504L170.478 99.848H168.054L173.358 112.856L170.766 119.192H173.022L180.942 99.848H178.686L174.606 110.504ZM182.321 106.376C182.321 110.456 185.033 113.216 188.537 113.216C190.961 113.216 192.665 111.968 193.457 110.552V113H195.665V99.848H193.457V102.248C192.689 100.88 191.009 99.632 188.561 99.632C185.033 99.632 182.321 102.272 182.321 106.376ZM193.457 106.4C193.457 109.496 191.393 111.296 188.993 111.296C186.593 111.296 184.553 109.472 184.553 106.376C184.553 103.28 186.593 101.528 188.993 101.528C191.393 101.528 193.457 103.352 193.457 106.4ZM201.492 111.656C201.492 110.816 200.844 110.168 200.052 110.168C199.212 110.168 198.564 110.816 198.564 111.656C198.564 112.496 199.212 113.144 200.052 113.144C200.844 113.144 201.492 112.496 201.492 111.656ZM209.761 98.048H214.345V113H216.529V98.048H221.089V96.272H209.761V98.048ZM229.37 101.48C231.626 101.48 233.546 102.896 233.522 105.464H225.218C225.458 102.896 227.234 101.48 229.37 101.48ZM235.514 108.944H233.162C232.682 110.36 231.434 111.368 229.466 111.368C227.234 111.368 225.362 109.904 225.194 107.24H235.706C235.754 106.784 235.778 106.4 235.778 105.92C235.778 102.32 233.282 99.632 229.466 99.632C225.626 99.632 222.962 102.248 222.962 106.4C222.962 110.576 225.722 113.216 229.466 113.216C232.73 113.216 234.842 111.344 235.514 108.944ZM237.845 106.4C237.845 110.576 240.509 113.216 244.253 113.216C247.517 113.216 249.653 111.392 250.325 108.776H247.973C247.493 110.432 246.197 111.368 244.253 111.368C241.853 111.368 240.077 109.664 240.077 106.4C240.077 103.184 241.853 101.48 244.253 101.48C246.197 101.48 247.517 102.488 247.973 104.072H250.325C249.653 101.312 247.517 99.632 244.253 99.632C240.509 99.632 237.845 102.272 237.845 106.4ZM253.239 113H255.423V105.728C255.423 102.896 256.959 101.504 259.191 101.504C261.399 101.504 262.863 102.872 262.863 105.56V113H265.023V105.248C265.023 101.48 262.695 99.608 259.767 99.608C257.919 99.608 256.287 100.352 255.423 101.744V95.24H253.239V113ZM284.445 109.424C284.349 104.72 276.717 106.424 276.717 103.304C276.717 102.248 277.677 101.48 279.285 101.48C281.037 101.48 282.045 102.44 282.141 103.76H284.325C284.181 101.192 282.261 99.632 279.357 99.632C276.429 99.632 274.533 101.288 274.533 103.304C274.533 108.2 282.309 106.496 282.309 109.424C282.309 110.504 281.349 111.368 279.621 111.368C277.773 111.368 276.645 110.408 276.525 109.136H274.269C274.413 111.536 276.573 113.216 279.645 113.216C282.549 113.216 284.445 111.584 284.445 109.424ZM288.008 109.4C288.008 112.04 289.328 113 291.656 113H293.624V111.152H292.016C290.672 111.152 290.192 110.696 290.192 109.4V101.648H293.624V99.848H290.192V96.536H288.008V99.848H286.304V101.648H288.008V109.4ZM307.934 99.848H305.75V107.072C305.75 109.904 304.238 111.296 301.982 111.296C299.774 111.296 298.31 109.928 298.31 107.264V99.848H296.15V107.552C296.15 111.32 298.526 113.192 301.55 113.192C303.302 113.192 304.91 112.424 305.75 111.056V113H307.934V99.848ZM310.805 106.376C310.805 110.456 313.517 113.216 317.045 113.216C319.445 113.216 321.149 111.992 321.941 110.528V113H324.149V95.24H321.941V102.2C321.029 100.688 319.133 99.632 317.069 99.632C313.517 99.632 310.805 102.272 310.805 106.376ZM321.941 106.4C321.941 109.496 319.877 111.296 317.477 111.296C315.077 111.296 313.037 109.472 313.037 106.376C313.037 103.28 315.077 101.528 317.477 101.528C319.877 101.528 321.941 103.352 321.941 106.4ZM333.432 101.48C335.688 101.48 337.608 102.896 337.584 105.464H329.28C329.52 102.896 331.296 101.48 333.432 101.48ZM339.576 108.944H337.224C336.744 110.36 335.496 111.368 333.528 111.368C331.296 111.368 329.424 109.904 329.256 107.24H339.768C339.816 106.784 339.84 106.4 339.84 105.92C339.84 102.32 337.344 99.632 333.528 99.632C329.688 99.632 327.024 102.248 327.024 106.4C327.024 110.576 329.784 113.216 333.528 113.216C336.792 113.216 338.904 111.344 339.576 108.944ZM352.347 113H354.507V105.248C354.507 101.48 352.179 99.608 349.131 99.608C347.355 99.608 345.771 100.352 344.907 101.72V99.848H342.723V113H344.907V105.728C344.907 102.896 346.443 101.504 348.675 101.504C350.883 101.504 352.347 102.872 352.347 105.56V113ZM358.555 109.4C358.555 112.04 359.875 113 362.203 113H364.171V111.152H362.563C361.219 111.152 360.739 110.696 360.739 109.4V101.648H364.171V99.848H360.739V96.536H358.555V99.848H356.851V101.648H358.555V109.4ZM375.783 113H378.039L381.207 102.56L384.375 113H386.631L390.735 99.848H388.575L385.599 110.912L382.407 99.848H380.175L376.911 110.888L373.887 99.848H371.655L375.783 113ZM392.903 113H395.087V105.728C395.087 102.896 396.623 101.504 398.855 101.504C401.063 101.504 402.527 102.872 402.527 105.56V113H404.687V105.248C404.687 101.48 402.359 99.608 399.431 99.608C397.583 99.608 395.951 100.352 395.087 101.744V95.24H392.903V113ZM420.734 106.4C420.734 102.248 417.83 99.632 414.086 99.632C410.366 99.632 407.438 102.248 407.438 106.4C407.438 110.576 410.27 113.216 413.99 113.216C417.734 113.216 420.734 110.576 420.734 106.4ZM409.67 106.4C409.67 103.088 411.758 101.528 414.062 101.528C416.318 101.528 418.502 103.088 418.502 106.4C418.502 109.736 416.27 111.296 413.99 111.296C411.71 111.296 409.67 109.736 409.67 106.4ZM430.004 113H432.188V105.728C432.188 102.896 433.724 101.504 435.956 101.504C438.164 101.504 439.628 102.872 439.628 105.56V113H441.788V105.248C441.788 101.48 439.46 99.608 436.532 99.608C434.684 99.608 433.052 100.352 432.188 101.744V95.24H430.004V113ZM444.54 106.376C444.54 110.456 447.252 113.216 450.756 113.216C453.18 113.216 454.884 111.968 455.676 110.552V113H457.884V99.848H455.676V102.248C454.908 100.88 453.228 99.632 450.78 99.632C447.252 99.632 444.54 102.272 444.54 106.376ZM455.676 106.4C455.676 109.496 453.612 111.296 451.212 111.296C448.812 111.296 446.772 109.472 446.772 106.376C446.772 103.28 448.812 101.528 451.212 101.528C453.612 101.528 455.676 103.352 455.676 106.4ZM471.031 109.424C470.935 104.72 463.303 106.424 463.303 103.304C463.303 102.248 464.263 101.48 465.871 101.48C467.623 101.48 468.631 102.44 468.727 103.76H470.911C470.767 101.192 468.847 99.632 465.943 99.632C463.015 99.632 461.119 101.288 461.119 103.304C461.119 108.2 468.895 106.496 468.895 109.424C468.895 110.504 467.935 111.368 466.207 111.368C464.359 111.368 463.231 110.408 463.111 109.136H460.855C460.999 111.536 463.159 113.216 466.231 113.216C469.135 113.216 471.031 111.584 471.031 109.424ZM1.032 142.376C1.032 146.456 3.744 149.216 7.248 149.216C9.672 149.216 11.376 147.968 12.168 146.552V149H14.376V135.848H12.168V138.248C11.4 136.88 9.72 135.632 7.272 135.632C3.744 135.632 1.032 138.272 1.032 142.376ZM12.168 142.4C12.168 145.496 10.104 147.296 7.704 147.296C5.304 147.296 3.264 145.472 3.264 142.376C3.264 139.28 5.304 137.528 7.704 137.528C10.104 137.528 12.168 139.352 12.168 142.4ZM27.6908 149H29.8508V141.248C29.8508 137.48 27.5228 135.608 24.4748 135.608C22.6988 135.608 21.1148 136.352 20.2508 137.72V135.848H18.0668V149H20.2508V141.728C20.2508 138.896 21.7868 137.504 24.0188 137.504C26.2268 137.504 27.6908 138.872 27.6908 141.56V149ZM39.8168 149H42.0008V135.848H39.8168V149ZM40.9448 133.712C41.7368 133.712 42.3848 133.064 42.3848 132.224C42.3848 131.384 41.7368 130.736 40.9448 130.736C40.1048 130.736 39.4568 131.384 39.4568 132.224C39.4568 133.064 40.1048 133.712 40.9448 133.712ZM55.347 149H57.507V141.248C57.507 137.48 55.179 135.608 52.131 135.608C50.355 135.608 48.771 136.352 47.907 137.72V135.848H45.723V149H47.907V141.728C47.907 138.896 49.443 137.504 51.675 137.504C53.883 137.504 55.347 138.872 55.347 141.56V149ZM61.5546 145.4C61.5546 148.04 62.8746 149 65.2026 149H67.1706V147.152H65.5626C64.2186 147.152 63.7386 146.696 63.7386 145.4V137.648H67.1706V135.848H63.7386V132.536H61.5546V135.848H59.8506V137.648H61.5546V145.4ZM75.4088 137.48C77.6648 137.48 79.5848 138.896 79.5608 141.464H71.2568C71.4967 138.896 73.2728 137.48 75.4088 137.48ZM81.5528 144.944H79.2008C78.7208 146.36 77.4728 147.368 75.5048 147.368C73.2728 147.368 71.4008 145.904 71.2328 143.24H81.7448C81.7928 142.784 81.8168 142.4 81.8168 141.92C81.8168 138.32 79.3208 135.632 75.5048 135.632C71.6648 135.632 69.0008 138.248 69.0008 142.4C69.0008 146.576 71.7608 149.216 75.5048 149.216C78.7688 149.216 80.8808 147.344 81.5528 144.944ZM86.8836 141.848C86.8836 138.8 88.4676 137.864 90.5556 137.864H91.1316V135.608C89.0436 135.608 87.6276 136.52 86.8836 137.984V135.848H84.6996V149H86.8836V141.848ZM99.2447 137.48C101.501 137.48 103.421 138.896 103.397 141.464H95.0927C95.3327 138.896 97.1087 137.48 99.2447 137.48ZM105.389 144.944H103.037C102.557 146.36 101.309 147.368 99.3407 147.368C97.1087 147.368 95.2367 145.904 95.0687 143.24H105.581C105.629 142.784 105.653 142.4 105.653 141.92C105.653 138.32 103.157 135.632 99.3407 135.632C95.5007 135.632 92.8367 138.248 92.8367 142.4C92.8367 146.576 95.5967 149.216 99.3407 149.216C102.605 149.216 104.717 147.344 105.389 144.944ZM117.992 145.424C117.896 140.72 110.264 142.424 110.264 139.304C110.264 138.248 111.224 137.48 112.832 137.48C114.584 137.48 115.592 138.44 115.688 139.76H117.872C117.728 137.192 115.808 135.632 112.904 135.632C109.976 135.632 108.08 137.288 108.08 139.304C108.08 144.2 115.856 142.496 115.856 145.424C115.856 146.504 114.896 147.368 113.168 147.368C111.32 147.368 110.192 146.408 110.072 145.136H107.816C107.96 147.536 110.12 149.216 113.192 149.216C116.096 149.216 117.992 147.584 117.992 145.424ZM121.555 145.4C121.555 148.04 122.875 149 125.203 149H127.171V147.152H125.563C124.219 147.152 123.739 146.696 123.739 145.4V137.648H127.171V135.848H123.739V132.536H121.555V135.848H119.851V137.648H121.555V145.4ZM136.215 149H138.399V135.848H136.215V149ZM137.343 133.712C138.135 133.712 138.783 133.064 138.783 132.224C138.783 131.384 138.135 130.736 137.343 130.736C136.503 130.736 135.855 131.384 135.855 132.224C135.855 133.064 136.503 133.712 137.343 133.712ZM151.745 149H153.905V141.248C153.905 137.48 151.577 135.608 148.529 135.608C146.753 135.608 145.169 136.352 144.305 137.72V135.848H142.121V149H144.305V141.728C144.305 138.896 145.841 137.504 148.073 137.504C150.281 137.504 151.745 138.872 151.745 141.56V149ZM166.439 149H168.695L171.863 138.56L175.031 149H177.287L181.391 135.848H179.231L176.255 146.912L173.063 135.848H170.831L167.567 146.888L164.543 135.848H162.311L166.439 149ZM189.151 137.48C191.407 137.48 193.327 138.896 193.303 141.464H184.999C185.239 138.896 187.015 137.48 189.151 137.48ZM195.295 144.944H192.943C192.463 146.36 191.215 147.368 189.247 147.368C187.015 147.368 185.143 145.904 184.975 143.24H195.487C195.535 142.784 195.559 142.4 195.559 141.92C195.559 138.32 193.063 135.632 189.247 135.632C185.407 135.632 182.743 138.248 182.743 142.4C182.743 146.576 185.503 149.216 189.247 149.216C192.511 149.216 194.623 147.344 195.295 144.944ZM200.626 138.296V131.24H198.442V149H200.626V146.576C201.442 148.016 203.146 149.216 205.546 149.216C209.074 149.216 211.786 146.456 211.786 142.376C211.786 138.272 209.098 135.632 205.546 135.632C203.218 135.632 201.466 136.832 200.626 138.296ZM209.554 142.376C209.554 145.472 207.514 147.296 205.09 147.296C202.714 147.296 200.626 145.496 200.626 142.4C200.626 139.352 202.714 137.528 205.09 137.528C207.514 137.528 209.554 139.28 209.554 142.376ZM220.243 142.376C220.243 146.456 222.955 149.216 226.483 149.216C228.883 149.216 230.587 147.992 231.379 146.528V149H233.587V131.24H231.379V138.2C230.467 136.688 228.571 135.632 226.507 135.632C222.955 135.632 220.243 138.272 220.243 142.376ZM231.379 142.4C231.379 145.496 229.315 147.296 226.915 147.296C224.515 147.296 222.475 145.472 222.475 142.376C222.475 139.28 224.515 137.528 226.915 137.528C229.315 137.528 231.379 139.352 231.379 142.4ZM242.87 137.48C245.126 137.48 247.046 138.896 247.022 141.464H238.718C238.958 138.896 240.734 137.48 242.87 137.48ZM249.014 144.944H246.662C246.182 146.36 244.934 147.368 242.966 147.368C240.734 147.368 238.862 145.904 238.694 143.24H249.206C249.254 142.784 249.278 142.4 249.278 141.92C249.278 138.32 246.782 135.632 242.966 135.632C239.126 135.632 236.462 138.248 236.462 142.4C236.462 146.576 239.222 149.216 242.966 149.216C246.23 149.216 248.342 147.344 249.014 144.944ZM250.601 135.848L255.761 149H258.305L263.465 135.848H261.137L257.057 146.984L252.953 135.848H250.601ZM271.206 137.48C273.462 137.48 275.382 138.896 275.358 141.464H267.054C267.294 138.896 269.07 137.48 271.206 137.48ZM277.35 144.944H274.998C274.518 146.36 273.27 147.368 271.302 147.368C269.07 147.368 267.198 145.904 267.03 143.24H277.542C277.59 142.784 277.614 142.4 277.614 141.92C277.614 138.32 275.118 135.632 271.302 135.632C267.462 135.632 264.798 138.248 264.798 142.4C264.798 146.576 267.558 149.216 271.302 149.216C274.566 149.216 276.678 147.344 277.35 144.944ZM280.496 149H282.68V131.24H280.496V149ZM298.883 142.4C298.883 138.248 295.979 135.632 292.235 135.632C288.515 135.632 285.587 138.248 285.587 142.4C285.587 146.576 288.419 149.216 292.139 149.216C295.883 149.216 298.883 146.576 298.883 142.4ZM287.819 142.4C287.819 139.088 289.907 137.528 292.211 137.528C294.467 137.528 296.651 139.088 296.651 142.4C296.651 145.736 294.419 147.296 292.139 147.296C289.859 147.296 287.819 145.736 287.819 142.4ZM303.938 138.272V135.848H301.754V155.24H303.938V146.576C304.754 147.92 306.458 149.216 308.858 149.216C312.386 149.216 315.098 146.456 315.098 142.376C315.098 138.272 312.386 135.632 308.858 135.632C306.458 135.632 304.73 136.88 303.938 138.272ZM312.866 142.376C312.866 145.472 310.826 147.296 308.402 147.296C306.026 147.296 303.938 145.496 303.938 142.4C303.938 139.352 306.026 137.528 308.402 137.528C310.826 137.528 312.866 139.28 312.866 142.376ZM336.957 149H339.117V141.248C339.117 137.48 336.789 135.608 333.789 135.608C331.773 135.608 329.901 136.64 329.133 138.536C328.269 136.568 326.469 135.608 324.309 135.608C322.581 135.608 321.021 136.352 320.157 137.744V135.848H317.973V149H320.157V141.752C320.157 138.92 321.669 137.504 323.877 137.504C326.037 137.504 327.477 138.872 327.477 141.56V149H329.637V141.752C329.637 138.92 331.149 137.504 333.357 137.504C335.517 137.504 336.957 138.872 336.957 141.56V149ZM348.292 137.48C350.548 137.48 352.468 138.896 352.444 141.464H344.14C344.38 138.896 346.156 137.48 348.292 137.48ZM354.436 144.944H352.084C351.604 146.36 350.356 147.368 348.388 147.368C346.156 147.368 344.284 145.904 344.116 143.24H354.628C354.676 142.784 354.7 142.4 354.7 141.92C354.7 138.32 352.204 135.632 348.388 135.632C344.548 135.632 341.884 138.248 341.884 142.4C341.884 146.576 344.644 149.216 348.388 149.216C351.652 149.216 353.764 147.344 354.436 144.944ZM367.206 149H369.366V141.248C369.366 137.48 367.038 135.608 363.99 135.608C362.214 135.608 360.63 136.352 359.766 137.72V135.848H357.582V149H359.766V141.728C359.766 138.896 361.302 137.504 363.534 137.504C365.742 137.504 367.206 138.872 367.206 141.56V149ZM373.414 145.4C373.414 148.04 374.734 149 377.062 149H379.03V147.152H377.422C376.078 147.152 375.598 146.696 375.598 145.4V137.648H379.03V135.848H375.598V132.536H373.414V135.848H371.71V137.648H373.414V145.4ZM379.78 152.432H381.244L383.932 145.976H381.532L379.78 152.432ZM392.016 142.376C392.016 146.456 394.728 149.216 398.256 149.216C400.656 149.216 402.36 147.944 403.152 146.528V149.288C403.152 152.096 401.4 153.584 399.072 153.584C396.912 153.584 395.352 152.504 394.872 150.92H392.712C393.144 153.728 395.616 155.48 399.072 155.48C402.936 155.48 405.36 152.912 405.36 149.288V135.848H403.152V138.248C402.384 136.832 400.656 135.632 398.256 135.632C394.728 135.632 392.016 138.272 392.016 142.376ZM403.152 142.4C403.152 145.496 401.088 147.296 398.688 147.296C396.288 147.296 394.248 145.472 394.248 142.376C394.248 139.28 396.288 137.528 398.688 137.528C401.088 137.528 403.152 139.352 403.152 142.4ZM411.235 141.848C411.235 138.8 412.819 137.864 414.907 137.864H415.483V135.608C413.395 135.608 411.979 136.52 411.235 137.984V135.848H409.051V149H411.235V141.848ZM417.188 142.376C417.188 146.456 419.9 149.216 423.404 149.216C425.828 149.216 427.532 147.968 428.324 146.552V149H430.532V135.848H428.324V138.248C427.556 136.88 425.876 135.632 423.428 135.632C419.9 135.632 417.188 138.272 417.188 142.376ZM428.324 142.4C428.324 145.496 426.26 147.296 423.86 147.296C421.46 147.296 419.42 145.472 419.42 142.376C419.42 139.28 421.46 137.528 423.86 137.528C426.26 137.528 428.324 139.352 428.324 142.4ZM436.407 138.272V135.848H434.223V155.24H436.407V146.576C437.223 147.92 438.927 149.216 441.327 149.216C444.855 149.216 447.567 146.456 447.567 142.376C447.567 138.272 444.855 135.632 441.327 135.632C438.927 135.632 437.199 136.88 436.407 138.272ZM445.335 142.376C445.335 145.472 443.295 147.296 440.871 147.296C438.495 147.296 436.407 145.496 436.407 142.4C436.407 139.352 438.495 137.528 440.871 137.528C443.295 137.528 445.335 139.28 445.335 142.376ZM450.442 149H452.626V141.728C452.626 138.896 454.162 137.504 456.394 137.504C458.602 137.504 460.066 138.872 460.066 141.56V149H462.226V141.248C462.226 137.48 459.898 135.608 456.97 135.608C455.122 135.608 453.49 136.352 452.626 137.744V131.24H450.442V149ZM465.793 149H467.977V135.848H465.793V149ZM466.921 133.712C467.713 133.712 468.361 133.064 468.361 132.224C468.361 131.384 467.713 130.736 466.921 130.736C466.081 130.736 465.433 131.384 465.433 132.224C465.433 133.064 466.081 133.712 466.921 133.712ZM470.884 142.4C470.884 146.576 473.548 149.216 477.292 149.216C480.556 149.216 482.692 147.392 483.364 144.776H481.012C480.532 146.432 479.236 147.368 477.292 147.368C474.892 147.368 473.116 145.664 473.116 142.4C473.116 139.184 474.892 137.48 477.292 137.48C479.236 137.48 480.556 138.488 481.012 140.072H483.364C482.692 137.312 480.556 135.632 477.292 135.632C473.548 135.632 470.884 138.272 470.884 142.4ZM1.032 178.376C1.032 182.456 3.744 185.216 7.272 185.216C9.672 185.216 11.376 183.992 12.168 182.528V185H14.376V167.24H12.168V174.2C11.256 172.688 9.36 171.632 7.296 171.632C3.744 171.632 1.032 174.272 1.032 178.376ZM12.168 178.4C12.168 181.496 10.104 183.296 7.704 183.296C5.304 183.296 3.264 181.472 3.264 178.376C3.264 175.28 5.304 173.528 7.704 173.528C10.104 173.528 12.168 175.352 12.168 178.4ZM23.6588 173.48C25.9148 173.48 27.8348 174.896 27.8108 177.464H19.5068C19.7467 174.896 21.5228 173.48 23.6588 173.48ZM29.8028 180.944H27.4508C26.9708 182.36 25.7228 183.368 23.7548 183.368C21.5228 183.368 19.6508 181.904 19.4828 179.24H29.9948C30.0428 178.784 30.0668 178.4 30.0668 177.92C30.0668 174.32 27.5708 171.632 23.7548 171.632C19.9148 171.632 17.2508 174.248 17.2508 178.4C17.2508 182.576 20.0108 185.216 23.7548 185.216C27.0188 185.216 29.1308 183.344 29.8028 180.944ZM42.4056 181.424C42.3096 176.72 34.6776 178.424 34.6776 175.304C34.6776 174.248 35.6376 173.48 37.2456 173.48C38.9976 173.48 40.0056 174.44 40.1016 175.76H42.2856C42.1416 173.192 40.2216 171.632 37.3176 171.632C34.3896 171.632 32.4936 173.288 32.4936 175.304C32.4936 180.2 40.2696 178.496 40.2696 181.424C40.2696 182.504 39.3096 183.368 37.5816 183.368C35.7336 183.368 34.6056 182.408 34.4856 181.136H32.2296C32.3736 183.536 34.5336 185.216 37.6056 185.216C40.5096 185.216 42.4056 183.584 42.4056 181.424ZM45.4886 185H47.6726V171.848H45.4886V185ZM46.6166 169.712C47.4086 169.712 48.0566 169.064 48.0566 168.224C48.0566 167.384 47.4086 166.736 46.6166 166.736C45.7766 166.736 45.1286 167.384 45.1286 168.224C45.1286 169.064 45.7766 169.712 46.6166 169.712ZM50.5789 178.376C50.5789 182.456 53.2909 185.216 56.8189 185.216C59.2189 185.216 60.9229 183.944 61.7149 182.528V185.288C61.7149 188.096 59.9629 189.584 57.6349 189.584C55.4749 189.584 53.9149 188.504 53.4349 186.92H51.2749C51.7069 189.728 54.1789 191.48 57.6349 191.48C61.4989 191.48 63.9229 188.912 63.9229 185.288V171.848H61.7149V174.248C60.9469 172.832 59.2189 171.632 56.8189 171.632C53.2909 171.632 50.5789 174.272 50.5789 178.376ZM61.7149 178.4C61.7149 181.496 59.6509 183.296 57.2509 183.296C54.8509 183.296 52.8109 181.472 52.8109 178.376C52.8109 175.28 54.8509 173.528 57.2509 173.528C59.6509 173.528 61.7149 175.352 61.7149 178.4ZM77.2376 185H79.3976V177.248C79.3976 173.48 77.0696 171.608 74.0216 171.608C72.2456 171.608 70.6616 172.352 69.7976 173.72V171.848H67.6136V185H69.7976V177.728C69.7976 174.896 71.3336 173.504 73.5656 173.504C75.7736 173.504 77.2376 174.872 77.2376 177.56V185ZM81.0692 188.432H82.5332L85.2212 181.976H82.8212L81.0692 188.432ZM93.3054 178.376C93.3054 182.456 96.0174 185.216 99.5214 185.216C101.945 185.216 103.649 183.968 104.441 182.552V185H106.649V171.848H104.441V174.248C103.673 172.88 101.993 171.632 99.5454 171.632C96.0174 171.632 93.3054 174.272 93.3054 178.376ZM104.441 178.4C104.441 181.496 102.377 183.296 99.9774 183.296C97.5774 183.296 95.5374 181.472 95.5374 178.376C95.5374 175.28 97.5774 173.528 99.9774 173.528C102.377 173.528 104.441 175.352 104.441 178.4ZM119.964 185H122.124V177.248C122.124 173.48 119.796 171.608 116.748 171.608C114.972 171.608 113.388 172.352 112.524 173.72V171.848H110.34V185H112.524V177.728C112.524 174.896 114.06 173.504 116.292 173.504C118.5 173.504 119.964 174.872 119.964 177.56V185ZM124.876 178.376C124.876 182.456 127.588 185.216 131.116 185.216C133.516 185.216 135.22 183.992 136.012 182.528V185H138.22V167.24H136.012V174.2C135.1 172.688 133.204 171.632 131.14 171.632C127.588 171.632 124.876 174.272 124.876 178.376ZM136.012 178.4C136.012 181.496 133.948 183.296 131.548 183.296C129.148 183.296 127.108 181.472 127.108 178.376C127.108 175.28 129.148 173.528 131.548 173.528C133.948 173.528 136.012 175.352 136.012 178.4ZM157.765 181.424C157.669 176.72 150.037 178.424 150.037 175.304C150.037 174.248 150.997 173.48 152.605 173.48C154.357 173.48 155.365 174.44 155.461 175.76H157.645C157.501 173.192 155.581 171.632 152.677 171.632C149.749 171.632 147.853 173.288 147.853 175.304C147.853 180.2 155.629 178.496 155.629 181.424C155.629 182.504 154.669 183.368 152.941 183.368C151.093 183.368 149.965 182.408 149.845 181.136H147.589C147.733 183.536 149.893 185.216 152.965 185.216C155.869 185.216 157.765 183.584 157.765 181.424ZM163.032 174.272V171.848H160.848V191.24H163.032V182.576C163.848 183.92 165.552 185.216 167.952 185.216C171.48 185.216 174.192 182.456 174.192 178.376C174.192 174.272 171.48 171.632 167.952 171.632C165.552 171.632 163.824 172.88 163.032 174.272ZM171.96 178.376C171.96 181.472 169.92 183.296 167.496 183.296C165.12 183.296 163.032 181.496 163.032 178.4C163.032 175.352 165.12 173.528 167.496 173.528C169.92 173.528 171.96 175.28 171.96 178.376ZM189.547 178.4C189.547 174.248 186.643 171.632 182.899 171.632C179.179 171.632 176.251 174.248 176.251 178.4C176.251 182.576 179.083 185.216 182.803 185.216C186.547 185.216 189.547 182.576 189.547 178.4ZM178.483 178.4C178.483 175.088 180.571 173.528 182.875 173.528C185.131 173.528 187.315 175.088 187.315 178.4C187.315 181.736 185.083 183.296 182.803 183.296C180.523 183.296 178.483 181.736 178.483 178.4ZM194.602 177.848C194.602 174.8 196.186 173.864 198.274 173.864H198.85V171.608C196.762 171.608 195.346 172.52 194.602 173.984V171.848H192.418V185H194.602V177.848ZM201.851 181.4C201.851 184.04 203.171 185 205.499 185H207.467V183.152H205.859C204.515 183.152 204.035 182.696 204.035 181.4V173.648H207.467V171.848H204.035V168.536H201.851V171.848H200.147V173.648H201.851V181.4ZM219.57 181.424C219.474 176.72 211.842 178.424 211.842 175.304C211.842 174.248 212.802 173.48 214.41 173.48C216.162 173.48 217.17 174.44 217.266 175.76H219.45C219.306 173.192 217.386 171.632 214.482 171.632C211.554 171.632 209.658 173.288 209.658 175.304C209.658 180.2 217.434 178.496 217.434 181.424C217.434 182.504 216.474 183.368 214.746 183.368C212.898 183.368 211.77 182.408 211.65 181.136H209.394C209.538 183.536 211.698 185.216 214.77 185.216C217.674 185.216 219.57 183.584 219.57 181.424ZM224.789 183.656C224.789 182.816 224.141 182.168 223.349 182.168C222.509 182.168 221.861 182.816 221.861 183.656C221.861 184.496 222.509 185.144 223.349 185.144C224.141 185.144 224.789 184.496 224.789 183.656Z" fill="black"/>
</svg>
